<svg xmlns="http://www.w3.org/2000/svg" version="1.1" xmlns:xlink="http://www.w3.org/1999/xlink" xmlns:svgjs="http://svgjs.dev/svgjs" width="2000" height="2000" viewBox="0 0 2000 2000"><g transform="matrix(1,0,0,1,-0.9991261853786,-0.9999999999998863)"><svg viewBox="0 0 280 280" data-background-color="#ffffff" preserveAspectRatio="xMidYMid meet" height="2000" width="2000" xmlns="http://www.w3.org/2000/svg" xmlns:xlink="http://www.w3.org/1999/xlink"><g id="tight-bounds" transform="matrix(1,0,0,1,0.13987766595300855,0.13999999999998636)"><svg viewBox="0 0 279.72 279.72" height="279.72" width="279.72"><g><svg viewBox="0 0 279.72 279.72" height="279.72" width="279.72"><g><svg viewBox="0 0 279.72 279.72" height="279.72" width="279.72"><g id="textblocktransform"><svg viewBox="0 0 279.72 279.72" height="279.72" width="279.72" id="textblock"><g><svg viewBox="0 0 279.72 279.72" height="279.72" width="279.72"><g transform="matrix(1,0,0,1,73.92936372216631,73.92936372216631)"><svg viewBox="0 0 131.8612725556674 131.8612725556674" height="131.8612725556674" width="131.8612725556674"><g><svg xmlns="http://www.w3.org/2000/svg" xmlns:xlink="http://www.w3.org/1999/xlink" version="1.1" x="0" y="0" viewBox="1 1 126 126" style="enable-background:new 0 0 128 128;" xml:space="preserve" height="131.8612725556674" width="131.8612725556674" class="icon-o-0" data-fill-palette-color="accent" id="o-0"><g fill="#87c0cd" data-fill-palette-color="accent"><path d="M110.937 52.703c-7.691-4.44-16.653-5.62-25.231-3.321-8.267 2.215-15.218 7.411-19.687 14.668 9.403 17.409 3.288 39.323-13.954 49.278-5.771 3.331-12.084 4.915-18.313 4.915-0.632 0-1.264-0.028-1.894-0.062C41.271 123.777 52.257 127 64 127c31.814 0 58.104-23.586 62.378-54.223C124.154 64.602 118.837 57.265 110.937 52.703z" fill="#87c0cd" data-fill-palette-color="accent"></path><path d="M64 1c-8.339 0-16.291 1.635-23.575 4.577C34.448 11.591 30.749 19.872 30.749 29c0 18.01 14.396 32.711 32.285 33.226 4.938-8.026 12.624-13.774 21.766-16.224 9.482-2.54 19.386-1.237 27.887 3.671 6.348 3.666 11.181 8.957 14.295 15.043C126.983 64.476 127 64.24 127 64 127 29.206 98.795 1 64 1z" fill="#87c0cd" data-fill-palette-color="accent"></path><path d="M50.314 110.297c15.598-9.006 21.13-28.825 12.632-44.574C43.168 65.162 27.249 48.91 27.249 29c0-7.337 2.17-14.175 5.891-19.918C13.961 19.882 1 40.421 1 64c0 20.167 9.486 38.105 24.228 49.636C33.414 115.793 42.419 114.854 50.314 110.297z" fill="#87c0cd" data-fill-palette-color="accent"></path></g></svg></g></svg></g><g><path d="M12.548 185.953L11.718 183.119C11.665 182.937 11.668 182.777 11.726 182.64 11.785 182.503 11.879 182.416 12.009 182.378V182.378L22.771 179.226C22.901 179.188 23.028 179.211 23.151 179.295 23.274 179.379 23.362 179.511 23.416 179.693V179.693L24.246 182.527C24.436 183.177 24.494 183.798 24.421 184.39 24.339 184.978 24.09 185.499 23.673 185.952 23.256 186.406 22.622 186.757 21.771 187.006V187.006L17.047 188.389C16.197 188.638 15.474 188.685 14.878 188.528 14.282 188.371 13.791 188.067 13.405 187.616 13.024 187.156 12.738 186.602 12.548 185.953ZM22.415 180.79L13.152 183.502 13.766 185.596C13.96 186.259 14.296 186.721 14.774 186.982 15.248 187.252 15.875 187.273 16.654 187.045V187.045L21.378 185.662C22.157 185.434 22.673 185.078 22.926 184.595 23.188 184.117 23.222 183.546 23.028 182.884V182.884ZM17.163 198.937L15.036 193.394C14.98 193.249 14.966 193.098 14.993 192.943 15.029 192.791 15.123 192.687 15.275 192.628V192.628L25.726 188.619C25.877 188.56 26.017 188.576 26.145 188.664 26.27 188.761 26.36 188.883 26.416 189.028V189.028L28.542 194.571C28.605 194.735 28.587 194.876 28.487 194.994 28.388 195.112 28.271 195.197 28.139 195.247V195.247C27.981 195.308 27.826 195.32 27.675 195.284 27.519 195.257 27.414 195.171 27.358 195.025V195.025L25.507 190.202 21.556 191.718 22.487 194.144C22.543 194.289 22.528 194.422 22.444 194.541 22.361 194.667 22.248 194.758 22.102 194.813V194.813C21.976 194.862 21.843 194.873 21.702 194.847 21.562 194.821 21.46 194.726 21.397 194.562V194.562L20.467 192.136 16.497 193.66 18.347 198.483C18.403 198.628 18.385 198.761 18.294 198.883 18.206 199.011 18.079 199.107 17.915 199.17V199.17C17.776 199.223 17.633 199.238 17.487 199.215 17.334 199.194 17.226 199.101 17.163 198.937ZM18.866 202.637V202.637C18.793 202.485 18.76 202.324 18.769 202.155 18.784 201.983 18.864 201.861 19.01 201.791V201.791L28.922 197.018C29.154 196.907 29.348 196.896 29.504 196.986 29.66 197.076 29.775 197.197 29.848 197.35V197.35C29.924 197.508 29.96 197.66 29.955 197.805 29.95 197.95 29.911 198.097 29.839 198.244 29.77 198.397 29.67 198.562 29.537 198.739V198.739L26.151 203.286 31.822 203.484C32.046 203.497 32.239 203.524 32.402 203.566 32.562 203.601 32.7 203.662 32.817 203.749 32.933 203.835 33.028 203.955 33.102 204.107V204.107C33.184 204.278 33.209 204.446 33.176 204.612 33.146 204.784 33.015 204.926 32.784 205.037V205.037L22.872 209.81C22.725 209.88 22.58 209.868 22.437 209.772 22.302 209.679 22.196 209.553 22.12 209.395V209.395C22.044 209.236 22.01 209.072 22.018 208.903 22.036 208.737 22.118 208.619 22.264 208.548V208.548L30.155 204.749 24.784 204.519C24.63 204.51 24.507 204.48 24.414 204.427 24.318 204.368 24.249 204.296 24.208 204.211V204.211C24.173 204.137 24.162 204.045 24.176 203.933 24.184 203.824 24.235 203.706 24.331 203.577V203.577L27.564 199.227 19.618 203.053C19.472 203.123 19.327 203.11 19.183 203.014 19.048 202.922 18.943 202.796 18.866 202.637ZM26.008 216.327V216.327C25.661 215.746 25.451 215.162 25.376 214.576 25.311 213.992 25.424 213.429 25.714 212.885 26.004 212.341 26.53 211.842 27.291 211.388V211.388L31.603 208.812C32.364 208.358 33.053 208.132 33.669 208.134 34.285 208.136 34.835 208.305 35.318 208.639 35.799 208.982 36.213 209.444 36.56 210.025V210.025C36.91 210.611 37.122 211.198 37.197 211.784 37.268 212.379 37.158 212.946 36.864 213.484 36.574 214.027 36.049 214.526 35.288 214.981V214.981L30.975 217.557C30.214 218.011 29.525 218.237 28.909 218.235 28.297 218.238 27.745 218.067 27.255 217.721 26.774 217.378 26.359 216.913 26.008 216.327ZM27.097 215.676V215.676C27.451 216.269 27.894 216.634 28.427 216.774 28.95 216.91 29.56 216.771 30.257 216.354V216.354L34.57 213.778C35.267 213.362 35.679 212.891 35.806 212.366 35.936 211.831 35.824 211.268 35.471 210.675V210.675C35.117 210.083 34.677 209.723 34.152 209.595 33.629 209.458 33.019 209.598 32.322 210.014V210.014L28.009 212.59C27.312 213.007 26.899 213.477 26.772 214.003 26.635 214.526 26.743 215.084 27.097 215.676ZM31.92 225.217V225.217C31.543 224.688 31.294 224.134 31.172 223.556 31.053 222.969 31.118 222.39 31.369 221.821 31.61 221.25 32.088 220.709 32.805 220.199V220.199L36.895 217.283C37.606 216.776 38.275 216.502 38.903 216.462 39.526 216.416 40.096 216.546 40.613 216.851 41.12 217.154 41.56 217.567 41.933 218.09V218.09C42.373 218.707 42.643 219.308 42.744 219.893 42.845 220.477 42.799 221.013 42.606 221.499 42.417 221.992 42.102 222.395 41.661 222.709V222.709C41.408 222.89 41.206 222.963 41.057 222.928 40.908 222.893 40.764 222.779 40.627 222.587V222.587C40.497 222.405 40.437 222.24 40.448 222.091 40.453 221.946 40.509 221.827 40.617 221.734V221.734C40.751 221.63 40.89 221.493 41.035 221.323 41.184 221.159 41.297 220.957 41.376 220.718 41.457 220.47 41.467 220.193 41.407 219.887 41.356 219.582 41.195 219.24 40.924 218.86V218.86C40.507 218.276 40.032 217.942 39.498 217.857 38.966 217.763 38.369 217.952 37.708 218.423V218.423L33.618 221.339C32.957 221.811 32.586 222.316 32.505 222.855 32.415 223.393 32.584 223.963 33.012 224.563V224.563C33.283 224.943 33.552 225.204 33.819 225.346 34.081 225.492 34.334 225.561 34.578 225.553 34.818 225.54 35.046 225.493 35.263 225.413 35.482 225.324 35.677 225.23 35.849 225.133V225.133C35.994 225.046 36.136 225.028 36.272 225.08 36.404 225.136 36.53 225.25 36.652 225.42V225.42C36.789 225.613 36.85 225.786 36.834 225.938 36.813 226.095 36.676 226.264 36.422 226.444V226.444C35.976 226.762 35.487 226.933 34.954 226.955 34.412 226.976 33.879 226.84 33.356 226.549 32.831 226.267 32.352 225.823 31.92 225.217ZM40.229 235.52V235.52C40.142 235.416 40.108 235.29 40.126 235.143 40.144 234.986 40.184 234.834 40.245 234.685V234.685L42.378 229.629 41.139 228.151 37.382 231.299C37.257 231.403 37.114 231.426 36.951 231.369 36.797 231.312 36.664 231.216 36.551 231.081V231.081C36.442 230.952 36.371 230.804 36.338 230.637 36.31 230.467 36.358 230.329 36.482 230.225V230.225L45.071 223.03C45.175 222.943 45.291 222.908 45.419 222.924 45.547 222.94 45.662 222.998 45.764 223.098V223.098L47.726 225.44C48.16 225.959 48.477 226.501 48.677 227.066 48.882 227.627 48.907 228.188 48.752 228.751 48.591 229.318 48.187 229.873 47.538 230.416V230.416C47.02 230.851 46.52 231.128 46.038 231.249 45.562 231.365 45.107 231.359 44.671 231.229 44.236 231.099 43.83 230.888 43.452 230.596V230.596L41.448 235.505C41.43 235.546 41.41 235.585 41.387 235.622 41.361 235.653 41.334 235.68 41.308 235.701V235.701C41.215 235.779 41.101 235.822 40.966 235.829 40.825 235.841 40.691 235.817 40.561 235.758 40.427 235.703 40.316 235.623 40.229 235.52ZM45.371 224.606L42.034 227.401 43.416 229.051C43.854 229.574 44.34 229.891 44.873 230.001 45.397 230.109 45.96 229.912 46.561 229.408V229.408C47.168 228.899 47.464 228.378 47.448 227.843 47.424 227.308 47.192 226.779 46.753 226.255V226.255ZM42.869 238.29V238.29C42.793 238.213 42.722 238.107 42.656 237.973 42.599 237.839 42.571 237.71 42.571 237.585 42.577 237.466 42.618 237.368 42.695 237.292V237.292C42.728 237.258 42.767 237.23 42.81 237.206V237.206L53.082 231.827C53.235 231.742 53.398 231.733 53.57 231.801 53.742 231.859 53.894 231.955 54.028 232.09V232.09C54.171 232.234 54.268 232.395 54.32 232.572 54.381 232.749 54.373 232.909 54.296 233.053V233.053L48.818 243.268C48.798 243.316 48.777 243.352 48.753 243.376V243.376C48.676 243.452 48.573 243.487 48.443 243.482 48.31 243.481 48.176 243.452 48.042 243.394 47.913 243.341 47.806 243.271 47.72 243.184V243.184C47.63 243.093 47.57 243 47.542 242.904 47.518 242.803 47.533 242.703 47.586 242.603V242.603L48.824 240.319 45.738 237.205 43.472 238.45C43.371 238.503 43.268 238.514 43.163 238.485 43.062 238.451 42.965 238.386 42.869 238.29ZM52.557 233.547L46.788 236.635 49.417 239.288ZM51.847 246.904V246.904C51.714 246.787 51.622 246.652 51.569 246.497 51.515 246.333 51.542 246.19 51.649 246.068V246.068L58.509 238.261 56.481 236.48C56.374 236.386 56.33 236.262 56.349 236.107 56.372 235.947 56.442 235.801 56.558 235.669V235.669C56.661 235.552 56.785 235.468 56.93 235.415 57.08 235.367 57.216 235.397 57.338 235.504V235.504L62.454 239.999C62.576 240.106 62.623 240.237 62.594 240.393 62.561 240.543 62.493 240.677 62.39 240.794V240.794C62.283 240.916 62.154 241.006 62.005 241.063 61.854 241.111 61.718 241.082 61.596 240.975V240.975L59.561 239.186 52.701 246.992C52.594 247.114 52.458 247.161 52.293 247.134 52.132 247.101 51.984 247.024 51.846 246.904ZM57.352 251.548V251.548C57.22 251.442 57.121 251.311 57.055 251.155 56.994 250.993 57.014 250.849 57.115 250.722V250.722L64.105 241.966C64.211 241.834 64.345 241.785 64.508 241.82 64.675 241.849 64.824 241.917 64.956 242.022V242.022C65.094 242.132 65.193 242.263 65.253 242.415 65.323 242.566 65.305 242.708 65.2 242.84V242.84L58.209 251.596C58.108 251.723 57.972 251.774 57.801 251.75 57.639 251.725 57.489 251.657 57.352 251.548ZM65.942 257.727L60.55 253.944C60.423 253.855 60.349 253.753 60.329 253.64 60.313 253.522 60.342 253.41 60.416 253.305V253.305C60.505 253.177 60.635 253.069 60.804 252.982V252.982L70.951 247.902 67.013 245.139C66.886 245.049 66.826 244.929 66.833 244.777 66.84 244.625 66.891 244.483 66.984 244.35V244.35C67.073 244.222 67.187 244.125 67.326 244.057 67.47 243.993 67.609 244.007 67.742 244.1V244.1L72.768 247.627C72.895 247.716 72.969 247.817 72.989 247.931 73.018 248.042 72.998 248.148 72.928 248.247V248.247C72.83 248.386 72.68 248.499 72.477 248.588V248.588L62.359 253.663 66.67 256.688C66.809 256.786 66.873 256.913 66.861 257.07 66.856 257.232 66.808 257.376 66.719 257.503V257.503C66.629 257.631 66.512 257.722 66.366 257.776 66.222 257.841 66.08 257.824 65.942 257.727ZM69.254 259.86V259.86C69.111 259.769 68.999 259.65 68.916 259.502 68.837 259.348 68.841 259.202 68.928 259.065V259.065L74.913 249.594C75.003 249.451 75.131 249.387 75.297 249.404 75.466 249.415 75.622 249.465 75.765 249.556V249.556C75.914 249.65 76.027 249.769 76.103 249.914 76.19 250.056 76.187 250.199 76.097 250.342V250.342L70.112 259.813C70.025 259.95 69.895 260.017 69.723 260.011 69.559 260.004 69.403 259.953 69.254 259.86ZM73.634 262.407V262.407C73.486 262.325 73.366 262.213 73.275 262.07 73.187 261.921 73.182 261.776 73.26 261.634V261.634L78.66 251.816C78.745 251.662 78.87 251.589 79.037 251.595 79.203 251.602 79.36 251.646 79.508 251.727V251.727C79.662 251.812 79.777 251.913 79.851 252.031 79.925 252.149 79.975 252.289 80.002 252.451 80.029 252.612 80.037 252.802 80.025 253.019V253.019L79.741 262.129 83.844 254.668C83.926 254.52 84.05 254.449 84.216 254.455 84.385 254.456 84.544 254.497 84.692 254.579V254.579C84.847 254.663 84.966 254.776 85.052 254.915 85.146 255.052 85.153 255.195 85.071 255.343V255.343L79.672 265.16C79.593 265.302 79.468 265.376 79.295 265.381 79.131 265.384 78.972 265.343 78.818 265.258V265.258C78.664 265.173 78.548 265.04 78.471 264.859 78.399 264.68 78.361 264.489 78.357 264.286V264.286L78.596 254.839 74.487 262.309C74.409 262.451 74.284 262.525 74.111 262.53 73.947 262.533 73.788 262.492 73.634 262.407ZM85.963 268.681V268.681C85.345 268.406 84.837 268.05 84.44 267.613 84.051 267.173 83.82 266.644 83.747 266.026 83.671 265.415 83.813 264.708 84.171 263.904V263.904L86.217 259.316C86.572 258.519 87.004 257.941 87.512 257.582 88.02 257.224 88.568 257.042 89.155 257.037 89.746 257.041 90.341 257.177 90.94 257.444V257.444C91.608 257.742 92.137 258.115 92.53 258.564 92.922 259.013 93.167 259.503 93.263 260.035 93.359 260.567 93.286 261.105 93.044 261.649V261.649C92.933 261.896 92.803 262.038 92.654 262.075 92.504 262.112 92.327 262.085 92.123 261.994V261.994C91.95 261.917 91.82 261.818 91.733 261.698 91.639 261.575 91.622 261.43 91.682 261.264V261.264C91.804 260.889 91.851 260.543 91.822 260.226 91.796 259.903 91.673 259.604 91.455 259.329 91.237 259.054 90.903 258.816 90.451 258.615V258.615C89.821 258.334 89.254 258.293 88.751 258.49 88.245 258.679 87.826 259.145 87.496 259.886V259.886L85.45 264.474C85.119 265.216 85.053 265.838 85.251 266.341 85.44 266.848 85.85 267.242 86.48 267.523V267.523C87.11 267.804 87.683 267.848 88.199 267.656 88.705 267.467 89.124 267.001 89.454 266.26V266.26L90.149 264.703 88.341 263.897C88.199 263.833 88.112 263.728 88.082 263.581 88.057 263.437 88.074 263.3 88.132 263.17V263.17C88.192 263.034 88.284 262.927 88.408 262.849 88.538 262.773 88.674 262.767 88.816 262.831V262.831L91.467 264.013C91.609 264.076 91.697 264.171 91.73 264.296 91.763 264.422 91.75 264.55 91.692 264.68V264.68L90.733 266.83C90.375 267.633 89.943 268.211 89.438 268.564 88.936 268.925 88.385 269.106 87.786 269.105 87.195 269.101 86.587 268.96 85.963 268.681ZM100.036 273.888V273.888C99.391 273.685 98.845 273.389 98.4 273 97.964 272.607 97.673 272.111 97.529 271.512 97.384 270.913 97.445 270.191 97.711 269.346V269.346L99.222 264.555C99.488 263.71 99.853 263.083 100.315 262.675 100.777 262.268 101.299 262.028 101.882 261.956 102.469 261.893 103.086 261.963 103.731 262.167V262.167C104.383 262.372 104.931 262.669 105.376 263.058 105.826 263.455 106.119 263.952 106.258 264.549 106.402 265.148 106.341 265.87 106.075 266.715V266.715L104.564 271.506C104.298 272.352 103.934 272.978 103.472 273.386 103.016 273.796 102.49 274.034 101.894 274.102 101.307 274.165 100.688 274.094 100.036 273.888ZM100.417 272.678V272.678C101.075 272.886 101.65 272.865 102.14 272.615 102.622 272.37 102.984 271.86 103.229 271.085V271.085L104.739 266.294C104.983 265.52 104.978 264.894 104.724 264.417 104.466 263.931 104.008 263.584 103.35 263.377V263.377C102.691 263.169 102.124 263.193 101.646 263.446 101.165 263.692 100.802 264.202 100.558 264.976V264.976L99.047 269.767C98.803 270.541 98.808 271.167 99.062 271.645 99.307 272.126 99.759 272.471 100.417 272.678ZM107.705 275.89V275.89C107.54 275.852 107.394 275.777 107.267 275.665 107.141 275.546 107.097 275.408 107.133 275.249V275.249L109.621 264.325C109.652 264.193 109.726 264.096 109.844 264.032 109.969 263.971 110.113 263.951 110.274 263.974V263.974L113.351 264.675C114.004 264.824 114.562 265.072 115.024 265.421 115.491 265.777 115.818 266.243 116.006 266.82 116.194 267.398 116.19 268.115 115.995 268.972V268.972L115.961 269.121C115.768 269.965 115.458 270.613 115.029 271.063 114.607 271.515 114.102 271.796 113.515 271.905 112.935 272.016 112.312 271.995 111.645 271.843V271.843L109.459 271.345 108.498 275.56C108.462 275.719 108.362 275.824 108.197 275.877 108.041 275.925 107.877 275.929 107.705 275.89ZM110.813 265.398L109.718 270.207 111.905 270.705C112.578 270.859 113.148 270.791 113.616 270.502 114.08 270.205 114.4 269.667 114.577 268.889V268.889L114.622 268.691C114.803 267.899 114.747 267.276 114.455 266.821 114.158 266.358 113.673 266.05 113 265.896V265.896ZM117.771 277.911V277.911C117.604 277.887 117.452 277.823 117.317 277.721 117.182 277.613 117.127 277.478 117.151 277.317V277.317L118.781 266.232C118.801 266.099 118.867 265.995 118.98 265.923 119.1 265.852 119.242 265.821 119.404 265.832V265.832L122.527 266.291C123.189 266.388 123.765 266.593 124.252 266.904 124.746 267.223 125.108 267.662 125.34 268.223 125.573 268.784 125.625 269.499 125.497 270.369V270.369L125.475 270.52C125.348 271.377 125.089 272.046 124.697 272.529 124.311 273.012 123.83 273.332 123.253 273.486 122.683 273.642 122.06 273.67 121.384 273.57V273.57L119.165 273.244 118.536 277.521C118.513 277.682 118.421 277.795 118.261 277.86 118.108 277.92 117.945 277.937 117.771 277.911ZM120.053 267.209L119.335 272.089 121.554 272.416C122.237 272.516 122.801 272.404 123.245 272.079 123.684 271.747 123.961 271.186 124.077 270.397V270.397L124.107 270.196C124.225 269.392 124.121 268.775 123.794 268.344 123.462 267.906 122.955 267.636 122.272 267.536V267.536ZM130.71 279.433V279.433C130.035 279.387 129.435 279.227 128.911 278.954 128.395 278.674 127.996 278.261 127.715 277.712 127.434 277.164 127.323 276.448 127.384 275.564V275.564L127.727 270.552C127.788 269.667 127.995 268.973 128.348 268.468 128.701 267.963 129.153 267.608 129.703 267.401 130.259 267.202 130.875 267.126 131.55 267.172V267.172C132.231 267.219 132.834 267.378 133.358 267.652 133.888 267.932 134.29 268.346 134.565 268.894 134.846 269.442 134.956 270.159 134.896 271.043V271.043L134.552 276.055C134.492 276.939 134.285 277.633 133.931 278.138 133.585 278.643 133.13 278.999 132.567 279.204 132.01 279.404 131.391 279.48 130.71 279.433ZM130.796 278.168V278.168C131.485 278.215 132.038 278.059 132.456 277.701 132.867 277.35 133.1 276.769 133.155 275.959V275.959L133.498 270.947C133.554 270.137 133.402 269.53 133.043 269.126 132.678 268.714 132.151 268.485 131.463 268.437V268.437C130.774 268.39 130.228 268.546 129.824 268.905 129.413 269.257 129.18 269.837 129.124 270.647V270.647L128.781 275.659C128.726 276.469 128.877 277.076 129.236 277.481 129.588 277.891 130.108 278.12 130.796 278.168ZM144.399 279.534V279.534C144.264 279.535 144.144 279.483 144.042 279.376 143.932 279.262 143.839 279.135 143.763 278.994V278.994L141.192 274.145 139.264 274.171 139.328 279.072C139.33 279.234 139.258 279.36 139.11 279.45 138.969 279.533 138.81 279.576 138.634 279.578V279.578C138.465 279.58 138.306 279.542 138.156 279.463 138.006 279.377 137.93 279.253 137.928 279.09V279.09L137.782 267.887C137.78 267.752 137.826 267.639 137.92 267.55 138.013 267.461 138.131 267.409 138.273 267.393V267.393L141.327 267.354C142.004 267.345 142.624 267.442 143.189 267.644 143.753 267.84 144.204 268.176 144.541 268.652 144.879 269.134 145.054 269.799 145.065 270.644V270.644C145.073 271.321 144.972 271.884 144.762 272.333 144.551 272.776 144.258 273.124 143.882 273.38 143.507 273.635 143.086 273.816 142.621 273.924V273.924L145.158 278.58C145.179 278.62 145.196 278.661 145.21 278.701 145.217 278.742 145.221 278.779 145.222 278.813V278.813C145.223 278.934 145.184 279.05 145.104 279.159 145.025 279.275 144.921 279.365 144.793 279.427 144.666 279.496 144.534 279.532 144.399 279.534ZM139.193 268.65L139.249 273.004 141.401 272.976C142.084 272.967 142.636 272.79 143.058 272.446 143.473 272.11 143.676 271.549 143.666 270.764V270.764C143.655 269.972 143.438 269.414 143.014 269.088 142.584 268.768 142.027 268.613 141.344 268.622V268.622ZM150.98 278.985V278.985C150.805 279.001 150.643 278.975 150.494 278.907 150.338 278.833 150.252 278.716 150.237 278.554V278.554L149.284 268.206 146.596 268.453C146.454 268.466 146.334 268.413 146.234 268.293 146.134 268.166 146.076 268.015 146.06 267.84V267.84C146.046 267.685 146.069 267.537 146.131 267.395 146.2 267.253 146.315 267.175 146.476 267.16V267.16L153.257 266.535C153.419 266.52 153.547 266.576 153.64 266.703 153.726 266.831 153.777 266.973 153.791 267.128V267.128C153.806 267.289 153.783 267.444 153.722 267.593 153.653 267.735 153.538 267.813 153.377 267.828V267.828L150.678 268.077 151.632 278.425C151.647 278.587 151.588 278.718 151.454 278.819 151.32 278.913 151.162 278.968 150.98 278.985ZM161.084 277.758V277.758C160.403 277.869 159.773 277.852 159.194 277.707 158.62 277.554 158.131 277.243 157.725 276.774 157.326 276.305 157.055 275.633 156.912 274.758V274.758L155.595 266.695C155.568 266.528 155.615 266.397 155.736 266.302 155.863 266.199 156.02 266.132 156.207 266.102V266.102C156.381 266.073 156.544 266.088 156.698 266.145 156.857 266.194 156.95 266.302 156.977 266.469V266.469L158.295 274.532C158.426 275.333 158.712 275.89 159.154 276.202 159.603 276.519 160.178 276.62 160.879 276.506V276.506C161.567 276.393 162.077 276.115 162.409 275.67 162.735 275.232 162.832 274.613 162.702 273.812V273.812L161.384 265.749C161.357 265.582 161.407 265.451 161.535 265.354 161.669 265.25 161.823 265.184 161.996 265.155V265.155C162.17 265.127 162.337 265.141 162.497 265.197 162.649 265.248 162.739 265.356 162.766 265.523V265.523L164.084 273.586C164.227 274.461 164.18 275.185 163.945 275.758 163.716 276.33 163.348 276.781 162.84 277.111 162.337 277.433 161.752 277.649 161.084 277.758ZM168.93 276.061V276.061C168.766 276.102 168.602 276.101 168.438 276.059 168.272 276.009 168.17 275.906 168.13 275.749V275.749L165.413 264.879C165.37 264.708 165.412 264.569 165.538 264.461 165.665 264.352 165.81 264.278 165.974 264.237V264.237C166.145 264.194 166.297 264.191 166.432 264.227 166.566 264.263 166.698 264.331 166.828 264.431 166.958 264.531 167.092 264.665 167.232 264.832V264.832L173.218 271.704 171.153 263.444C171.112 263.28 171.154 263.144 171.281 263.035 171.405 262.92 171.55 262.843 171.714 262.801V262.801C171.885 262.759 172.049 262.76 172.206 262.804 172.369 262.84 172.47 262.94 172.511 263.104V263.104L175.229 273.974C175.268 274.131 175.227 274.271 175.103 274.392 174.985 274.505 174.841 274.583 174.67 274.626V274.626C174.5 274.669 174.324 274.65 174.143 274.569 173.97 274.487 173.812 274.373 173.671 274.227V274.227L167.421 267.139 169.489 275.409C169.528 275.566 169.487 275.706 169.363 275.827 169.245 275.941 169.101 276.019 168.93 276.061ZM179.517 273.139V273.139C179.356 273.19 179.192 273.2 179.026 273.167 178.857 273.128 178.749 273.031 178.7 272.876V272.876L175.325 262.192C175.274 262.031 175.308 261.893 175.427 261.777 175.545 261.655 175.684 261.568 175.846 261.517V261.517C176.013 261.464 176.177 261.455 176.337 261.489 176.501 261.516 176.609 261.609 176.66 261.771V261.771L180.035 272.454C180.084 272.609 180.051 272.751 179.935 272.88 179.824 273 179.685 273.086 179.517 273.139ZM186.34 270.64V270.64C186.176 270.703 186.013 270.722 185.851 270.698 185.681 270.669 185.566 270.58 185.508 270.428V270.428L181.762 260.734 179.244 261.707C179.111 261.759 178.981 261.74 178.853 261.652 178.722 261.557 178.625 261.428 178.561 261.264V261.264C178.505 261.119 178.487 260.97 178.508 260.817 178.535 260.661 178.624 260.554 178.776 260.496V260.496L185.128 258.041C185.279 257.983 185.417 258.002 185.542 258.099 185.66 258.198 185.747 258.32 185.803 258.466V258.466C185.862 258.617 185.882 258.772 185.864 258.932 185.837 259.087 185.748 259.194 185.596 259.253V259.253L183.068 260.23 186.814 269.923C186.873 270.075 186.852 270.217 186.751 270.35 186.647 270.477 186.511 270.574 186.34 270.639ZM193.005 267.908V267.908C192.85 267.977 192.688 268.004 192.519 267.99 192.347 267.969 192.229 267.885 192.163 267.736V267.736L187.636 257.487C187.568 257.333 187.587 257.191 187.693 257.063 187.796 256.929 187.925 256.827 188.08 256.759V256.759C188.241 256.688 188.403 256.661 188.565 256.678 188.732 256.686 188.849 256.767 188.917 256.922V256.922L193.444 267.17C193.51 267.319 193.492 267.464 193.392 267.604 193.295 267.736 193.166 267.837 193.005 267.908ZM202.773 263.008L197.495 265.727C197.357 265.799 197.209 265.829 197.052 265.819 196.897 265.8 196.783 265.718 196.708 265.573V265.573L191.581 255.623C191.507 255.478 191.507 255.338 191.581 255.201 191.664 255.066 191.774 254.964 191.913 254.893V254.893L197.19 252.173C197.347 252.093 197.489 252.095 197.617 252.182 197.745 252.268 197.842 252.374 197.907 252.5V252.5C197.984 252.651 198.013 252.803 197.994 252.958 197.984 253.115 197.91 253.23 197.771 253.301V253.301L193.179 255.667 195.118 259.429 197.427 258.239C197.566 258.168 197.699 258.168 197.827 258.239 197.961 258.307 198.063 258.41 198.135 258.548V258.548C198.197 258.668 198.222 258.8 198.212 258.942 198.202 259.084 198.118 259.196 197.962 259.276V259.276L195.652 260.466 197.6 264.246 202.192 261.88C202.33 261.809 202.465 261.812 202.596 261.889 202.733 261.963 202.842 262.078 202.922 262.235V262.235C202.991 262.367 203.021 262.507 203.014 262.656 203.01 262.81 202.929 262.927 202.773 263.008ZM208.185 259.901V259.901C207.58 260.273 206.993 260.507 206.424 260.602 205.861 260.694 205.38 260.692 204.979 260.597 204.576 260.496 204.313 260.347 204.193 260.151V260.151C204.133 260.053 204.098 259.939 204.09 259.809 204.082 259.68 204.095 259.552 204.129 259.428 204.168 259.309 204.23 259.223 204.316 259.17V259.17C204.432 259.099 204.579 259.088 204.76 259.136 204.931 259.181 205.148 259.231 205.411 259.283 205.677 259.342 205.976 259.345 206.309 259.291 206.645 259.243 207.026 259.088 207.453 258.826V258.826C207.85 258.582 208.157 258.306 208.373 257.998 208.589 257.691 208.696 257.355 208.695 256.99 208.702 256.628 208.584 256.248 208.339 255.851V255.851C208.091 255.447 207.804 255.167 207.477 255.011 207.149 254.863 206.793 254.788 206.41 254.785 206.025 254.792 205.63 254.828 205.226 254.894 204.816 254.963 204.401 255.032 203.982 255.099 203.556 255.17 203.146 255.187 202.752 255.152 202.351 255.121 201.965 254.997 201.594 254.78 201.228 254.56 200.893 254.202 200.588 253.707V253.707C200.269 253.188 200.1 252.7 200.081 252.243 200.057 251.79 200.141 251.365 200.334 250.968 200.525 250.581 200.777 250.235 201.09 249.931 201.404 249.627 201.736 249.367 202.088 249.151V249.151C202.347 248.991 202.629 248.842 202.932 248.703 203.24 248.57 203.543 248.463 203.843 248.382 204.148 248.297 204.419 248.266 204.655 248.288 204.887 248.304 205.053 248.392 205.152 248.554V248.554C205.198 248.629 205.233 248.73 205.256 248.859 205.282 248.978 205.279 249.103 205.248 249.233 205.223 249.36 205.155 249.457 205.046 249.524V249.524C204.936 249.592 204.778 249.625 204.572 249.625 204.369 249.631 204.112 249.666 203.802 249.729 203.497 249.79 203.14 249.945 202.731 250.197V250.197C202.391 250.406 202.101 250.652 201.862 250.934 201.624 251.207 201.484 251.508 201.44 251.837 201.402 252.162 201.492 252.503 201.712 252.861V252.861C201.921 253.201 202.177 253.429 202.478 253.545 202.786 253.658 203.122 253.701 203.488 253.675 203.843 253.647 204.226 253.591 204.634 253.506 205.034 253.419 205.449 253.351 205.879 253.301 206.306 253.261 206.73 253.266 207.151 253.317 207.566 253.372 207.973 253.53 208.373 253.793 208.763 254.053 209.127 254.457 209.463 255.005V255.005C209.882 255.685 210.092 256.33 210.094 256.94 210.098 257.541 209.932 258.092 209.596 258.592 209.266 259.089 208.796 259.525 208.185 259.901ZM218.032 253.011V253.011C217.898 253.115 217.749 253.183 217.586 253.215 217.419 253.242 217.283 253.188 217.18 253.054V253.054L210.325 244.192C210.226 244.063 210.2 243.925 210.248 243.777 210.305 243.63 210.396 243.509 210.519 243.413V243.413L215.175 239.812C215.309 239.709 215.446 239.688 215.588 239.749 215.735 239.807 215.852 239.892 215.939 240.004V240.004C216.042 240.138 216.099 240.282 216.108 240.438 216.126 240.595 216.074 240.721 215.951 240.816V240.816L211.905 243.945 214.494 247.293 216.565 245.691C216.688 245.596 216.819 245.571 216.958 245.618 217.097 245.665 217.214 245.749 217.309 245.873V245.873C217.392 245.98 217.441 246.104 217.456 246.246 217.467 246.392 217.408 246.515 217.279 246.614V246.614L215.208 248.216 218.288 252.198C218.391 252.331 218.409 252.476 218.341 252.631 218.274 252.777 218.171 252.904 218.032 253.011ZM227.423 245.348V245.348C226.919 245.799 226.387 246.117 225.825 246.301 225.265 246.476 224.69 246.473 224.101 246.292 223.512 246.111 222.922 245.69 222.331 245.03V245.03L218.98 241.287C218.389 240.627 218.036 239.994 217.921 239.389 217.806 238.783 217.866 238.212 218.102 237.674 218.347 237.136 218.722 236.642 219.226 236.191V236.191C219.735 235.735 220.27 235.415 220.831 235.23 221.402 235.046 221.98 235.047 222.563 235.233 223.152 235.414 223.742 235.834 224.334 236.495V236.495L227.684 240.238C228.275 240.898 228.629 241.531 228.744 242.136 228.864 242.737 228.801 243.311 228.555 243.858 228.31 244.395 227.932 244.892 227.423 245.348ZM226.577 244.402V244.402C227.091 243.942 227.366 243.437 227.401 242.888 227.436 242.349 227.182 241.777 226.641 241.172V241.172L223.29 237.429C222.749 236.824 222.208 236.509 221.668 236.484 221.118 236.458 220.586 236.676 220.072 237.136V237.136C219.558 237.596 219.288 238.096 219.263 238.636 219.229 239.176 219.482 239.748 220.024 240.353V240.353L223.374 244.096C223.916 244.701 224.457 245.016 224.997 245.041 225.536 245.076 226.063 244.863 226.577 244.402ZM237.046 235.61V235.61C236.953 235.708 236.832 235.756 236.684 235.756 236.526 235.755 236.37 235.733 236.215 235.689V235.689L230.949 234.148 229.622 235.547 233.178 238.921C233.296 239.032 233.335 239.172 233.297 239.341 233.258 239.5 233.178 239.643 233.057 239.771V239.771C232.94 239.894 232.801 239.981 232.64 240.033 232.474 240.081 232.332 240.048 232.214 239.937V239.937L224.085 232.226C223.987 232.133 223.939 232.022 223.94 231.892 223.942 231.763 223.986 231.642 224.074 231.53V231.53L226.176 229.314C226.642 228.823 227.144 228.446 227.683 228.183 228.217 227.915 228.772 227.826 229.348 227.916 229.93 228.011 230.528 228.349 231.141 228.931V228.931C231.632 229.397 231.965 229.862 232.14 230.326 232.31 230.786 232.356 231.24 232.276 231.687 232.197 232.134 232.034 232.562 231.786 232.97V232.97L236.892 234.401C236.935 234.414 236.977 234.429 237.015 234.448 237.049 234.471 237.079 234.494 237.103 234.517V234.517C237.192 234.601 237.247 234.709 237.27 234.843 237.297 234.981 237.289 235.117 237.245 235.253 237.205 235.392 237.139 235.511 237.046 235.61ZM225.616 231.748L228.775 234.744 230.256 233.183C230.726 232.687 230.985 232.168 231.033 231.626 231.081 231.094 230.82 230.557 230.251 230.017V230.017C229.677 229.472 229.125 229.238 228.596 229.314 228.067 229.4 227.567 229.691 227.097 230.187V230.187ZM242.803 228.549V228.549C242.702 228.684 242.574 228.788 242.42 228.858 242.261 228.925 242.116 228.91 241.986 228.813V228.813L233.162 222.243C232.956 222.089 232.856 221.923 232.864 221.743 232.871 221.563 232.926 221.405 233.027 221.269V221.269C233.132 221.128 233.25 221.026 233.381 220.963 233.512 220.901 233.659 220.867 233.823 220.862 233.991 220.852 234.184 220.865 234.402 220.901V220.901L240.001 221.793 237.547 216.676C237.455 216.472 237.389 216.289 237.351 216.125 237.308 215.967 237.298 215.816 237.321 215.673 237.343 215.529 237.405 215.389 237.506 215.254V215.254C237.619 215.102 237.757 215.002 237.919 214.954 238.085 214.901 238.271 214.951 238.478 215.104V215.104L247.301 221.675C247.431 221.771 247.487 221.906 247.469 222.078 247.449 222.24 247.387 222.392 247.282 222.533V222.533C247.177 222.674 247.047 222.78 246.893 222.851 246.738 222.913 246.595 222.895 246.465 222.798V222.798L239.44 217.567 241.726 222.433C241.79 222.573 241.82 222.697 241.817 222.804 241.809 222.916 241.777 223.01 241.72 223.086V223.086C241.672 223.151 241.595 223.204 241.489 223.243 241.389 223.287 241.26 223.296 241.102 223.271V223.271L235.748 222.423 242.822 227.69C242.952 227.787 243.008 227.921 242.99 228.093 242.97 228.256 242.908 228.407 242.803 228.549ZM251.35 216.375V216.375C250.978 216.98 250.561 217.454 250.097 217.797 249.636 218.133 249.206 218.349 248.806 218.445 248.4 218.537 248.099 218.523 247.903 218.403V218.403C247.805 218.343 247.722 218.257 247.656 218.145 247.59 218.033 247.544 217.913 247.519 217.786 247.499 217.663 247.516 217.558 247.569 217.472V217.472C247.64 217.357 247.766 217.28 247.949 217.241 248.122 217.204 248.338 217.15 248.596 217.078 248.86 217.01 249.129 216.877 249.401 216.679 249.679 216.485 249.949 216.174 250.211 215.747V215.747C250.455 215.349 250.604 214.964 250.658 214.592 250.711 214.221 250.655 213.872 250.489 213.548 250.332 213.222 250.054 212.936 249.657 212.692V212.692C249.253 212.445 248.87 212.325 248.508 212.333 248.148 212.35 247.797 212.444 247.454 212.615 247.113 212.795 246.777 213.005 246.447 213.247 246.112 213.494 245.773 213.743 245.43 213.992 245.082 214.247 244.725 214.449 244.357 214.596 243.985 214.749 243.585 214.813 243.156 214.788 242.73 214.757 242.269 214.589 241.773 214.285V214.285C241.254 213.966 240.883 213.607 240.66 213.208 240.433 212.815 240.315 212.398 240.308 211.957 240.303 211.525 240.372 211.103 240.514 210.69 240.656 210.277 240.835 209.895 241.051 209.543V209.543C241.21 209.284 241.394 209.023 241.602 208.762 241.816 208.504 242.038 208.271 242.269 208.064 242.503 207.85 242.73 207.7 242.95 207.613 243.165 207.522 243.353 207.526 243.514 207.625V207.625C243.589 207.671 243.666 207.746 243.745 207.85 243.822 207.945 243.876 208.058 243.907 208.188 243.942 208.312 243.925 208.429 243.858 208.539V208.539C243.791 208.648 243.665 208.75 243.481 208.843 243.302 208.94 243.089 209.087 242.841 209.284 242.597 209.476 242.349 209.776 242.098 210.185V210.185C241.889 210.526 241.742 210.876 241.656 211.236 241.567 211.586 241.578 211.918 241.688 212.232 241.8 212.539 242.036 212.803 242.393 213.022V213.022C242.734 213.231 243.065 213.319 243.386 213.286 243.712 213.247 244.031 213.134 244.345 212.946 244.65 212.76 244.965 212.536 245.292 212.276 245.609 212.018 245.948 211.77 246.309 211.531 246.672 211.301 247.053 211.114 247.451 210.97 247.846 210.831 248.281 210.788 248.756 210.842 249.222 210.897 249.729 211.093 250.277 211.43V211.43C250.957 211.847 251.436 212.328 251.714 212.871 251.989 213.405 252.09 213.971 252.017 214.569 251.947 215.162 251.725 215.763 251.35 216.375ZM254.967 209.758V209.758C254.89 209.909 254.782 210.032 254.642 210.128 254.496 210.221 254.351 210.231 254.206 210.157V210.157L244.398 205.174C244.169 205.057 244.043 204.91 244.02 204.731 243.997 204.552 244.024 204.388 244.1 204.237V204.237C244.18 204.08 244.279 203.96 244.398 203.876 244.516 203.792 244.656 203.734 244.816 203.701 244.98 203.663 245.172 203.643 245.393 203.642V203.642L251.062 203.574 247.779 198.946C247.653 198.76 247.558 198.59 247.492 198.436 247.423 198.287 247.388 198.14 247.386 197.995 247.384 197.849 247.421 197.701 247.498 197.551V197.551C247.584 197.382 247.702 197.26 247.854 197.185 248.009 197.105 248.201 197.123 248.43 197.239V197.239L258.238 202.223C258.383 202.296 258.461 202.419 258.472 202.592 258.48 202.755 258.444 202.915 258.364 203.072V203.072C258.284 203.229 258.175 203.355 258.035 203.451 257.892 203.538 257.748 203.545 257.603 203.471V203.471L249.795 199.504 252.871 203.913C252.958 204.04 253.009 204.157 253.023 204.263 253.035 204.375 253.019 204.473 252.976 204.558V204.558C252.939 204.63 252.872 204.695 252.775 204.752 252.684 204.811 252.558 204.842 252.398 204.844V204.844L246.978 204.914 254.84 208.909C254.985 208.982 255.063 209.105 255.074 209.278 255.082 209.441 255.046 209.602 254.967 209.758ZM262.577 192.858L260.369 198.369C260.311 198.514 260.22 198.634 260.094 198.729 259.965 198.816 259.824 198.829 259.674 198.768V198.768L249.282 194.606C249.132 194.546 249.039 194.44 249.005 194.288 248.98 194.132 248.997 193.982 249.055 193.837V193.837L251.262 188.326C251.327 188.163 251.437 188.072 251.59 188.053 251.743 188.034 251.886 188.051 252.018 188.104V188.104C252.175 188.167 252.297 188.263 252.383 188.392 252.479 188.518 252.498 188.653 252.44 188.798V188.798L250.519 193.593 254.448 195.166 255.414 192.755C255.471 192.61 255.572 192.523 255.715 192.493 255.861 192.456 256.006 192.467 256.151 192.525V192.525C256.276 192.575 256.382 192.658 256.467 192.772 256.552 192.886 256.562 193.025 256.497 193.189V193.189L255.531 195.6 259.478 197.181 261.399 192.386C261.457 192.242 261.561 192.156 261.71 192.128 261.862 192.094 262.02 192.11 262.183 192.175V192.175C262.321 192.231 262.436 192.317 262.528 192.434 262.626 192.553 262.642 192.694 262.577 192.858ZM264.631 186.964V186.964C264.417 187.642 264.127 188.203 263.76 188.647 263.395 189.086 263.03 189.4 262.665 189.59 262.293 189.778 261.998 189.837 261.779 189.768V189.768C261.669 189.734 261.568 189.67 261.477 189.577 261.386 189.485 261.312 189.38 261.257 189.263 261.208 189.149 261.199 189.043 261.229 188.946V188.946C261.27 188.817 261.374 188.711 261.542 188.629 261.701 188.552 261.897 188.447 262.13 188.315 262.37 188.185 262.598 187.99 262.814 187.732 263.036 187.476 263.223 187.109 263.373 186.632V186.632C263.514 186.186 263.565 185.777 263.527 185.403 263.488 185.029 263.349 184.705 263.109 184.431 262.878 184.152 262.539 183.943 262.094 183.803V183.803C261.643 183.66 261.242 183.637 260.893 183.733 260.548 183.837 260.23 184.013 259.938 184.262 259.652 184.519 259.377 184.805 259.115 185.12 258.851 185.441 258.582 185.764 258.309 186.089 258.034 186.421 257.736 186.703 257.415 186.935 257.091 187.174 256.718 187.333 256.296 187.413 255.876 187.486 255.388 187.435 254.833 187.261V187.261C254.252 187.078 253.805 186.82 253.492 186.487 253.176 186.16 252.961 185.784 252.847 185.358 252.737 184.94 252.701 184.514 252.739 184.079 252.777 183.644 252.858 183.23 252.982 182.836V182.836C253.073 182.546 253.188 182.248 253.327 181.944 253.471 181.642 253.631 181.363 253.804 181.105 253.979 180.841 254.163 180.64 254.356 180.502 254.542 180.362 254.725 180.321 254.906 180.378V180.378C254.99 180.404 255.082 180.458 255.184 180.54 255.282 180.613 255.362 180.709 255.423 180.828 255.487 180.94 255.5 181.058 255.461 181.181V181.181C255.423 181.303 255.325 181.432 255.169 181.567 255.02 181.705 254.848 181.899 254.656 182.15 254.465 182.395 254.297 182.747 254.153 183.205V183.205C254.033 183.586 253.975 183.961 253.979 184.331 253.979 184.693 254.07 185.012 254.252 185.29 254.436 185.561 254.728 185.759 255.128 185.885V185.885C255.509 186.005 255.851 186.01 256.156 185.9 256.462 185.784 256.744 185.596 257.003 185.337 257.254 185.083 257.506 184.79 257.759 184.458 258.004 184.131 258.273 183.808 258.565 183.488 258.861 183.178 259.185 182.904 259.537 182.667 259.886 182.436 260.297 182.289 260.771 182.226 261.237 182.167 261.776 182.234 262.389 182.427V182.427C263.151 182.667 263.732 183.017 264.133 183.477 264.53 183.928 264.766 184.453 264.84 185.051 264.916 185.642 264.846 186.28 264.631 186.964Z" fill="#87c0cd" data-fill-palette-color="secondary"></path><path d="M27.741 106.63V106.63C27.265 108.054 26.563 109.282 25.634 110.313 24.7 111.335 23.527 112.006 22.115 112.326 20.697 112.644 19.018 112.48 17.08 111.833V111.833L5.991 108.13C4.053 107.483 2.614 106.599 1.676 105.48 0.737 104.36 0.205 103.113 0.079 101.737-0.044 100.355 0.132 98.951 0.608 97.527V97.527C1.165 95.858 1.922 94.531 2.879 93.545 3.838 92.553 4.909 91.898 6.092 91.58 7.274 91.268 8.467 91.313 9.674 91.716V91.716C10.361 91.945 10.77 92.225 10.903 92.554 11.041 92.886 11.024 93.312 10.851 93.832V93.832C10.688 94.319 10.464 94.658 10.179 94.849 9.895 95.039 9.591 95.094 9.268 95.015V95.015C8.887 94.917 8.441 94.842 7.93 94.793 7.41 94.748 6.867 94.813 6.302 94.988 5.735 95.169 5.203 95.523 4.707 96.049 4.202 96.58 3.777 97.361 3.432 98.395V98.395C2.907 99.967 2.926 101.318 3.49 102.448 4.055 103.578 5.232 104.442 7.022 105.04V105.04L18.112 108.743C19.902 109.341 21.365 109.351 22.499 108.774 23.633 108.197 24.471 107.096 25.014 105.473V105.473C25.356 104.446 25.481 103.582 25.387 102.88 25.293 102.178 25.074 101.606 24.73 101.163 24.392 100.722 23.99 100.356 23.524 100.064 23.064 99.775 22.621 99.531 22.196 99.332V99.332C21.832 99.182 21.612 98.944 21.535 98.619 21.452 98.292 21.487 97.897 21.642 97.435V97.435C21.815 96.915 22.06 96.565 22.377 96.386 22.7 96.209 23.205 96.234 23.892 96.464V96.464C25.092 96.864 26.081 97.555 26.859 98.535 27.635 99.522 28.114 100.705 28.295 102.085 28.474 103.472 28.289 104.987 27.741 106.63ZM39.285 83.014V83.014C38.463 84.367 37.491 85.435 36.367 86.217 35.234 87.002 33.953 87.392 32.524 87.387 31.088 87.379 29.486 86.838 27.716 85.764V85.764L17.721 79.699C15.951 78.625 14.73 77.453 14.06 76.184 13.39 74.915 13.144 73.598 13.323 72.235 13.498 70.877 13.996 69.521 14.817 68.167V68.167C15.635 66.82 16.611 65.746 17.745 64.946 18.876 64.153 20.159 63.76 21.594 63.768 23.029 63.776 24.632 64.318 26.402 65.392V65.392L36.397 71.456C38.167 72.53 39.387 73.702 40.057 74.971 40.722 76.237 40.966 77.556 40.789 78.929 40.604 80.305 40.102 81.666 39.285 83.014ZM36.76 81.482V81.482C37.592 80.111 37.861 78.806 37.568 77.568 37.274 76.33 36.321 75.221 34.707 74.241V74.241L24.712 68.177C23.098 67.197 21.674 66.864 20.441 67.175 19.207 67.487 18.174 68.329 17.342 69.699V69.699C16.507 71.076 16.239 72.378 16.539 73.605 16.84 74.831 17.797 75.934 19.41 76.914V76.914L29.406 82.979C31.019 83.958 32.44 84.297 33.667 83.997 34.893 83.697 35.924 82.858 36.76 81.482ZM60.316 57.449L51.663 66.375C51.413 66.633 51.11 66.805 50.752 66.892 50.399 66.984 50.082 66.893 49.801 66.62V66.62L31.066 48.459C30.784 48.186 30.7 47.864 30.814 47.494 30.927 47.114 31.118 46.786 31.387 46.509V46.509C31.679 46.208 32.006 46.002 32.368 45.891 32.729 45.771 33.051 45.847 33.333 46.12V46.12L50.785 63.037 58.195 55.393C58.445 55.136 58.735 55.05 59.067 55.136 59.398 55.222 59.705 55.401 59.987 55.674V55.674C60.244 55.924 60.426 56.217 60.531 56.556 60.637 56.894 60.565 57.191 60.316 57.449ZM79.906 43.43L69.624 50.418C69.328 50.62 68.995 50.727 68.628 50.74 68.264 50.758 67.972 50.605 67.751 50.28V50.28L53.085 28.7C52.864 28.375 52.847 28.043 53.034 27.704 53.222 27.355 53.476 27.072 53.795 26.856V26.856C54.141 26.62 54.503 26.484 54.88 26.449 55.259 26.404 55.559 26.544 55.779 26.869V26.869L69.441 46.972 78.246 40.988C78.543 40.786 78.845 40.761 79.152 40.912 79.459 41.063 79.723 41.301 79.944 41.626V41.626C80.145 41.922 80.264 42.247 80.299 42.599 80.334 42.952 80.203 43.229 79.906 43.43ZM88.784 39.168V39.168C88.545 39.261 88.253 39.314 87.908 39.326 87.564 39.337 87.265 39.28 87.013 39.154 86.753 39.03 86.577 38.848 86.483 38.609V38.609C86.446 38.514 86.42 38.412 86.406 38.301V38.301L84.391 11.36C84.348 10.955 84.474 10.601 84.769 10.296 85.062 9.985 85.412 9.75 85.822 9.589V9.589C86.257 9.419 86.692 9.353 87.129 9.393 87.557 9.428 87.885 9.598 88.113 9.901V9.901L104.916 31.045C105.006 31.126 105.064 31.201 105.091 31.271V31.271C105.188 31.516 105.169 31.774 105.035 32.045 104.91 32.319 104.726 32.573 104.483 32.806 104.24 33.039 103.987 33.208 103.722 33.312V33.312C103.458 33.415 103.207 33.452 102.969 33.421 102.732 33.391 102.531 33.266 102.365 33.048V33.048L98.629 28.299 89.114 32.029 89.676 38.022C89.696 38.298 89.627 38.528 89.467 38.714 89.302 38.903 89.074 39.054 88.784 39.168ZM87.578 14.068L88.864 29.25 96.961 26.075ZM123.491 29.157L116.014 30.349C115.58 30.418 115.211 30.364 114.909 30.186 114.608 30.015 114.433 29.775 114.384 29.468V29.468L110.277 3.701C110.216 3.313 110.323 2.998 110.6 2.755 110.877 2.519 111.193 2.373 111.547 2.317V2.317L118.142 1.266C119.551 1.041 120.878 1.004 122.122 1.156 123.366 1.314 124.415 1.811 125.268 2.648 126.12 3.478 126.688 4.789 126.973 6.579V6.579C127.23 8.19 127.15 9.579 126.733 10.749 126.317 11.918 125.645 12.799 124.719 13.392V13.392C125.557 13.574 126.311 13.879 126.982 14.306 127.653 14.734 128.222 15.338 128.689 16.12 129.155 16.895 129.494 17.948 129.706 19.278V19.278L129.816 19.969C130.13 21.94 130.046 23.56 129.563 24.829 129.087 26.097 128.315 27.077 127.246 27.768 126.179 28.465 124.927 28.928 123.491 29.157ZM115.572 16.227L117.313 27.151 122.495 26.326C124.052 26.077 125.19 25.464 125.912 24.486 126.633 23.508 126.848 22.11 126.559 20.293V20.293L126.455 19.641C126.161 17.797 125.527 16.569 124.552 15.957 123.577 15.339 122.311 15.153 120.754 15.401V15.401ZM113.776 4.952L115.144 13.541 119.935 12.778C121.525 12.524 122.635 11.988 123.265 11.168 123.894 10.342 124.082 9.137 123.83 7.553V7.553C123.663 6.504 123.331 5.711 122.834 5.173 122.344 4.635 121.729 4.301 120.989 4.173 120.249 4.044 119.405 4.055 118.456 4.206V4.206ZM142.701 28.291V28.291C142.317 28.259 141.958 28.13 141.624 27.904 141.296 27.686 141.148 27.382 141.182 26.991V26.991L143.348 1.457C143.398 0.864 143.605 0.464 143.969 0.257 144.339 0.058 144.716-0.026 145.1 0.007V0.007C145.518 0.042 145.869 0.15 146.152 0.33 146.436 0.511 146.686 0.759 146.904 1.077 147.121 1.394 147.328 1.795 147.525 2.28V2.28L152.645 14.438 159.751 3.317C160.046 2.874 160.331 2.514 160.606 2.239 160.874 1.963 161.163 1.76 161.473 1.63 161.782 1.5 162.129 1.451 162.514 1.484V1.484C162.952 1.521 163.323 1.668 163.627 1.925 163.931 2.188 164.057 2.616 164.007 3.21V3.21L161.841 28.743C161.808 29.134 161.615 29.41 161.262 29.57 160.915 29.738 160.532 29.804 160.114 29.768V29.768C159.703 29.733 159.337 29.604 159.017 29.38 158.702 29.163 158.562 28.859 158.595 28.468V28.468L160.318 8.152 153.501 18.645C153.292 18.94 153.081 19.149 152.867 19.274 152.646 19.398 152.421 19.45 152.191 19.43V19.43C152.009 19.415 151.813 19.334 151.601 19.187 151.396 19.04 151.217 18.791 151.063 18.438V18.438L146.164 6.799 144.428 27.266C144.394 27.657 144.201 27.933 143.848 28.093 143.501 28.261 143.119 28.327 142.701 28.291ZM172.063 32.927V32.927C171.822 32.839 171.568 32.685 171.302 32.466 171.037 32.247 170.851 32.006 170.744 31.744 170.632 31.48 170.619 31.227 170.707 30.986V30.986C170.742 30.89 170.791 30.797 170.853 30.704V30.704L187.165 9.168C187.401 8.836 187.73 8.653 188.153 8.62 188.578 8.58 188.997 8.636 189.41 8.786V8.786C189.849 8.946 190.219 9.185 190.52 9.504 190.818 9.814 190.952 10.158 190.922 10.536V10.536L189.534 37.508C189.548 37.628 189.542 37.723 189.517 37.793V37.793C189.426 38.041 189.242 38.222 188.962 38.336 188.687 38.459 188.381 38.528 188.045 38.542 187.708 38.557 187.407 38.515 187.14 38.418V38.418C186.873 38.321 186.66 38.182 186.503 38.002 186.345 37.822 186.276 37.596 186.297 37.322V37.322L186.636 31.29 177.033 27.792 173.49 32.658C173.323 32.878 173.119 33.005 172.876 33.039 172.627 33.071 172.356 33.033 172.063 32.927ZM187.764 13.306L178.685 25.542 186.857 28.518ZM209.742 51.676V51.676C209.479 51.509 209.315 51.249 209.251 50.895 209.183 50.548 209.163 50.182 209.19 49.799V49.799L210.367 37.072 206.563 34.657 200.445 44.297C200.235 44.629 199.936 44.784 199.549 44.762 199.164 44.75 198.794 44.632 198.44 44.407V44.407C198.114 44.201 197.856 43.92 197.664 43.566 197.474 43.221 197.484 42.883 197.694 42.552V42.552L211.675 20.521C211.842 20.259 212.073 20.097 212.368 20.036 212.665 19.984 212.961 20.035 213.256 20.19V20.19L219.262 24.002C220.593 24.847 221.682 25.822 222.527 26.927 223.381 28.03 223.831 29.265 223.877 30.633 223.932 31.998 223.432 33.512 222.377 35.174V35.174C221.529 36.511 220.616 37.482 219.639 38.088 218.656 38.69 217.637 39.001 216.583 39.021 215.528 39.041 214.479 38.856 213.436 38.467V38.467L212.435 50.765C212.427 50.879 212.41 50.981 212.386 51.07 212.358 51.164 212.324 51.243 212.284 51.306V51.306C212.132 51.546 211.904 51.722 211.601 51.834 211.294 51.951 210.973 51.996 210.638 51.968 210.303 51.94 210.004 51.842 209.742 51.676ZM213.447 23.809L208.02 32.361 212.253 35.047C213.607 35.906 214.905 36.273 216.146 36.148 217.397 36.02 218.516 35.179 219.502 33.626V33.626C220.488 32.072 220.769 30.707 220.344 29.533 219.922 28.367 219.034 27.355 217.68 26.496V26.496ZM219.656 60.326V60.326C219.386 60.051 219.197 59.719 219.09 59.33 218.984 58.952 219.07 58.625 219.35 58.349V58.349L237.957 40.057C238.236 39.782 238.56 39.706 238.927 39.829 239.304 39.952 239.628 40.151 239.898 40.426V40.426C240.192 40.725 240.39 41.057 240.493 41.421 240.604 41.786 240.52 42.105 240.24 42.381V42.381L231.078 51.388 248.032 49.365C248.42 49.316 248.758 49.438 249.048 49.733V49.733C249.247 49.935 249.386 50.197 249.465 50.518 249.543 50.84 249.56 51.151 249.514 51.452 249.468 51.753 249.344 52.003 249.142 52.202V52.202C249.064 52.278 248.97 52.351 248.86 52.422 248.749 52.493 248.622 52.528 248.479 52.527V52.527L235.859 53.818 232.339 70.187C232.303 70.402 232.211 70.583 232.061 70.73V70.73C231.859 70.929 231.609 71.051 231.312 71.096 231.005 71.142 230.697 71.117 230.387 71.024 230.077 70.93 229.803 70.763 229.566 70.522V70.522C229.419 70.372 229.313 70.187 229.248 69.966 229.173 69.746 229.163 69.499 229.218 69.227V69.227L232.367 54.205 227.749 54.661 221.634 60.673C221.354 60.948 221.028 61.031 220.656 60.923 220.283 60.824 219.95 60.625 219.656 60.326ZM243.94 91.977L236.608 80.26C236.418 79.956 236.324 79.62 236.325 79.252 236.32 78.887 236.484 78.601 236.817 78.393V78.393L258.902 64.575C259.235 64.367 259.567 64.343 259.898 64.502 260.224 64.666 260.482 64.899 260.672 65.203V65.203L268.004 76.921C268.226 77.277 268.249 77.606 268.071 77.909 267.897 78.217 267.669 78.459 267.388 78.635V78.635C267.055 78.843 266.707 78.95 266.343 78.954 265.975 78.953 265.694 78.797 265.5 78.488V78.488L259.116 68.284 250.753 73.516 253.967 78.652C254.161 78.962 254.187 79.273 254.047 79.584 253.91 79.901 253.69 80.155 253.386 80.345V80.345C253.122 80.51 252.825 80.596 252.494 80.604 252.164 80.611 251.889 80.44 251.67 80.09V80.09L248.456 74.953 240.059 80.207 246.443 90.411C246.637 90.721 246.66 91.038 246.512 91.362 246.36 91.68 246.109 91.949 245.759 92.168V92.168C245.472 92.347 245.152 92.448 244.799 92.47 244.449 92.497 244.162 92.333 243.94 91.977ZM250.241 107.924V107.924C250.103 107.528 250.072 107.141 250.149 106.763 250.217 106.382 250.436 106.126 250.806 105.997V105.997L273.656 98.045 271.588 92.102C271.477 91.783 271.535 91.476 271.762 91.182 271.987 90.882 272.295 90.664 272.685 90.528V90.528C273.023 90.41 273.37 90.386 273.724 90.457 274.075 90.521 274.316 90.738 274.445 91.108V91.108L279.652 106.07C279.781 106.441 279.727 106.76 279.491 107.029 279.257 107.304 278.971 107.5 278.632 107.618V107.618C278.262 107.747 277.896 107.777 277.536 107.709 277.171 107.65 276.924 107.435 276.795 107.064V107.064L274.727 101.122 251.877 109.074C251.506 109.203 251.176 109.139 250.886 108.882 250.592 108.633 250.377 108.314 250.241 107.924Z" fill="#113f67" data-fill-palette-color="primary"></path><path d="M0 147.014C0 140.976 4.895 136.082 10.933 136.082 16.97 136.082 21.865 140.976 21.865 147.014 21.865 153.052 16.97 157.947 10.933 157.947 4.895 157.947 0 153.052 0 147.014ZM255.496 147.014C255.496 140.976 260.39 136.082 266.428 136.082 272.466 136.082 277.361 140.976 277.361 147.014 277.361 153.052 272.466 157.947 266.428 157.947 260.39 157.947 255.496 153.052 255.496 147.014Z" fill="#113f67" data-fill-palette-color="primary"></path></g></svg></g></svg></g></svg></g><g></g></svg></g><defs></defs></svg><rect width="279.72" height="279.72" fill="none" stroke="none" visibility="hidden"></rect></g></svg></g></svg>